<svg width="60" height="57" viewBox="0 0 60 57" fill="none" xmlns="http://www.w3.org/2000/svg">
<g clip-path="url(#clip0_250_77)">
<path d="M34.5414 2.12158L36.8552 28.3625L47.2707 31.8232L57.6861 28.3625L59.9999 2.12158H34.5414ZM55.2994 7.42545L54.9812 10.5614L47.337 13.8299L47.3171 13.8365H54.7093L53.8607 23.5558L47.3502 25.4586L40.7999 23.5227L40.3756 18.6232H43.6176L43.8298 21.1625L47.3171 22.0442L50.9436 21.0232L51.1889 16.9393L40.1635 16.9061V16.8995L40.1502 16.9061L39.9115 13.8365L47.3436 10.7404L47.7745 10.5614H39.6265L39.2419 7.42545H55.2994Z" fill="#010E32"/>
</g>
<g clip-path="url(#clip1_250_77)">
<path d="M0 2.12158L2.31381 28.3625L12.6961 31.8232L23.1448 28.3625L25.4586 2.12158H0ZM20.4332 10.6011H8.24751L8.51934 13.8763H20.1613L19.2597 23.715L12.7691 25.505V25.5249H12.6961L6.15249 23.715L5.7547 18.6895H8.91713L9.14917 21.2155L12.6961 22.1768L16.2564 21.2155L16.6541 17.0917H5.58895L4.74033 7.43871H20.7249L20.4332 10.6011Z" fill="#010E32"/>
</g>
<g clip-path="url(#clip2_250_77)">
<path d="M15.5138 24.7294V54.431H45.2155V24.7294H15.5138ZM31.6773 47.894C31.6773 50.7846 29.9801 52.104 27.5072 52.104C25.2729 52.104 23.9801 50.9504 23.3171 49.5515L25.5911 48.1791C26.0287 48.9548 26.4265 49.6111 27.3878 49.6111C28.3027 49.6111 28.8862 49.2531 28.8862 47.8542V38.3669H31.6773V47.894ZM38.2806 52.104C35.6884 52.104 34.011 50.8708 33.1956 49.2531L35.4696 47.9404C36.0663 48.915 36.8486 49.6377 38.221 49.6377C39.3746 49.6377 40.1171 49.0609 40.1171 48.2587C40.1171 47.304 39.3613 46.9658 38.0817 46.4023L37.3856 46.104C35.3701 45.2487 34.0376 44.168 34.0376 41.894C34.0376 39.799 35.6353 38.2078 38.1215 38.2078C39.8983 38.2078 41.1713 38.8244 42.0862 40.4421L39.9116 41.8343C39.4342 40.9791 38.9171 40.641 38.1149 40.641C37.2994 40.641 36.7823 41.1581 36.7823 41.8343C36.7823 42.6697 37.2994 43.0078 38.4994 43.5316L39.1956 43.8299C41.569 44.8443 42.9016 45.8852 42.9016 48.2189C42.9016 50.7249 40.9259 52.104 38.2806 52.104Z" fill="#010E32"/>
</g>
<defs>
<clipPath id="clip0_250_77">
<rect width="25.4586" height="33.9448" fill="white" transform="translate(34.5414)"/>
</clipPath>
<clipPath id="clip1_250_77">
<rect width="25.4586" height="33.9448" fill="white"/>
</clipPath>
<clipPath id="clip2_250_77">
<rect width="29.7017" height="33.9448" fill="white" transform="translate(15.5138 22.6078)"/>
</clipPath>
</defs>
</svg>
