<svg width="50" height="32" viewBox="0 0 50 32" fill="none" xmlns="http://www.w3.org/2000/svg">
<path d="M41.25 9.77496C39.3751 9.12923 37.7202 7.96818 36.475 6.42496C35.1026 4.70554 33.3551 3.3228 31.3663 2.38252C29.3774 1.44223 27.1997 0.969322 25 0.999958C22.0409 0.790397 19.1115 1.70307 16.795 3.55623C14.4786 5.40938 12.9451 8.06704 12.5 11C13.3767 9.53307 14.6961 8.38213 16.2685 7.71275C17.8408 7.04338 19.585 6.8901 21.25 7.27496C23.1217 7.93948 24.774 9.10728 26.025 10.65C27.4049 12.3556 29.1557 13.7241 31.1442 14.6512C33.1326 15.5783 35.3064 16.0396 37.5 16C40.4591 16.2095 43.3885 15.2968 45.705 13.4437C48.0214 11.5905 49.5549 8.93287 50 5.99996C49.1392 7.48439 47.824 8.65272 46.2484 9.33246C44.6729 10.0122 42.9205 10.1673 41.25 9.77496ZM8.75 22.225C10.6249 22.8707 12.2798 24.0317 13.525 25.575C14.8974 27.2944 16.6449 28.6771 18.6337 29.6174C20.6226 30.5577 22.8003 31.0306 25 31C27.9591 31.2095 30.8885 30.2968 33.205 28.4437C35.5214 26.5905 37.0549 23.9329 37.5 21C36.6233 22.4668 35.3039 23.6178 33.7315 24.2872C32.1592 24.9565 30.415 25.1098 28.75 24.725C26.8783 24.0604 25.226 22.8926 23.975 21.35C22.5914 19.6485 20.8399 18.283 18.8523 17.3564C16.8647 16.4297 14.6928 15.9659 12.5 16C9.54091 15.7904 6.61146 16.7031 4.29501 18.5562C1.97857 20.4094 0.445105 23.067 0 26C0.860767 24.5155 2.17602 23.3472 3.75158 22.6675C5.32715 21.9877 7.07952 21.8326 8.75 22.225Z" fill="white"/>
</svg>
